<svg xmlns="http://www.w3.org/2000/svg" width="21.719" height="14.609" viewBox="0 0 21.719 14.609">
  <path id="Контур_53" data-name="Контур 53" d="M-2.568-3.662a1.717,1.717,0,0,0-.659-1.445A7.931,7.931,0,0,0-5.605-6.133,11.483,11.483,0,0,1-8.34-7.285a3.649,3.649,0,0,1-1.943-3.184,3.465,3.465,0,0,1,1.4-2.832,5.672,5.672,0,0,1,3.638-1.113,6.145,6.145,0,0,1,2.646.547A4.344,4.344,0,0,1-.771-12.31a4,4,0,0,1,.664,2.241H-2.568a2.228,2.228,0,0,0-.7-1.743,2.882,2.882,0,0,0-2-.63,3.01,3.01,0,0,0-1.88.518,1.723,1.723,0,0,0-.669,1.445,1.559,1.559,0,0,0,.723,1.3A8.325,8.325,0,0,0-4.707-8.159,10.961,10.961,0,0,1-2.041-7.036,4.241,4.241,0,0,1-.566-5.591,3.764,3.764,0,0,1-.1-3.682,3.384,3.384,0,0,1-1.46-.854,5.909,5.909,0,0,1-5.156.2,6.946,6.946,0,0,1-7.993-.376,4.766,4.766,0,0,1-10-1.953,3.93,3.93,0,0,1-10.723-4.3h2.471a2.3,2.3,0,0,0,.8,1.875,3.507,3.507,0,0,0,2.295.664A3.047,3.047,0,0,0-3.218-2.28,1.686,1.686,0,0,0-2.568-3.662ZM4.541-1.973H11V0H2.07V-14.219H4.541Z" transform="translate(10.723 14.414)" fill="#98b3cd"/>
</svg>
