<svg xmlns="http://www.w3.org/2000/svg" width="77.579" height="74.197" viewBox="0 0 77.579 74.197">
  <g id="Сгруппировать_44" data-name="Сгруппировать 44" transform="translate(-149 -436.803)">
    <g id="Gmail_Icon" transform="translate(162.217 454.043)">
      <path id="Контур_1" data-name="Контур 1" d="M56.325,52.66h-45.1A3.221,3.221,0,0,1,8,49.439V17.222A3.221,3.221,0,0,1,11.222,14h45.1a3.221,3.221,0,0,1,3.222,3.222V49.439A3.221,3.221,0,0,1,56.325,52.66Z" transform="translate(-8 -14)" fill="#eef1f6"/>
      <path id="Контур_2" data-name="Контур 2" d="M14.443,52.66H11.222A3.221,3.221,0,0,1,8,49.439V17.222A3.221,3.221,0,0,1,11.222,14h0a3.221,3.221,0,0,1,3.222,3.222Z" transform="translate(-8 -14)" fill="#b9c5d1"/>
      <path id="Контур_3" data-name="Контур 3" d="M50,52.66h3.222a3.221,3.221,0,0,0,3.222-3.222V17.222A3.221,3.221,0,0,0,53.222,14h0A3.221,3.221,0,0,0,50,17.222Z" transform="translate(-4.896 -14)" fill="#b9c5d1"/>
      <path id="Контур_4" data-name="Контур 4" d="M58.17,19.863a3.222,3.222,0,0,0-3.69-5.284l-20.7,15.074h0L13.067,14.58a3.222,3.222,0,0,0-3.69,5.284L9.291,19.8,33.774,37.626" transform="translate(-8 -14)" fill="#b9c5d1"/>
      <line id="Линия_1" data-name="Линия 1" x1="24.484" y2="17.826" transform="translate(25.774 5.8)" fill="#de5145"/>
      <path id="Контур_5" data-name="Контур 5" d="M56.1,14a3.209,3.209,0,0,0-1.845.58l-20.7,15.074h0L12.845,14.58A3.209,3.209,0,0,0,11,14Z" transform="translate(-7.778 -14)" fill="#eef1f6"/>
      <path id="Контур_6" data-name="Контур 6" d="M14.375,24.558,8.945,19.18l0,0a3.224,3.224,0,0,0,.364.3l-.086-.063,5.155,3.753V24.6" transform="translate(-7.93 -13.617)" opacity="0.15"/>
      <path id="Контур_7" data-name="Контур 7" d="M29.752,39.665,14,51.917V24.063l15.748,15.6" transform="translate(-7.557 -13.256)" fill="#e5e9ef"/>
      <path id="Контур_8" data-name="Контур 8" d="M29.752,39.751l3.578-2.782L14,22.9v1.253l15.748,15.6Z" transform="translate(-7.557 -13.343)" fill="#dfe4ec"/>
      <path id="Контур_9" data-name="Контур 9" d="M40.9,52H51.577V22.9L32.246,36.968l-3.581,2.778Z" transform="translate(-6.473 -13.343)" fill="#e7ecf2"/>
    </g>
    <ellipse id="Эллипс_14" data-name="Эллипс 14" cx="1.724" cy="1.724" rx="1.724" ry="1.724" transform="translate(149 457.49)" fill="#eef1f6"/>
    <ellipse id="Эллипс_15" data-name="Эллипс 15" cx="2.873" cy="2.873" rx="2.873" ry="2.873" transform="translate(165.665 436.803)" fill="#eef1f6"/>
    <ellipse id="Эллипс_17" data-name="Эллипс 17" cx="1.149" cy="1.149" rx="1.149" ry="1.149" transform="translate(186.928 500.59)" fill="#eef1f6"/>
    <ellipse id="Эллипс_16" data-name="Эллипс 16" cx="1.149" cy="1.149" rx="1.149" ry="1.149" transform="translate(200.145 440.251)" fill="#eef1f6"/>
    <ellipse id="Эллипс_19" data-name="Эллипс 19" cx="2.299" cy="2.299" rx="2.299" ry="2.299" transform="translate(221.982 472.432)" fill="#eef1f6"/>
    <ellipse id="Эллипс_18" data-name="Эллипс 18" cx="18.739" cy="1.724" rx="18.739" ry="1.724" transform="translate(168.85 507.552)" fill="#eef1f6"/>
  </g>
</svg>
